<svg height="511pt" viewBox="-3 0 511 511.99967" width="511pt" xmlns="http://www.w3.org/2000/svg"><path d="m149.140625 186.40625s-68.53125-33.789062-60.082031-127.058594c1.542968-17.066406 6.367187-33.683594 13.96875-49.039062l3.515625-7.113282c2.394531-4.835937 9.523437-3.996093 10.734375 1.261719 7.175781 31.210938 29.734375 95.660157 94.453125 102.945313l16.238281 2.308594zm0 0" fill="#bc7d53"/><path d="m169.785156 166.316406-20.648437 20.085938s-68.523438-33.792969-60.085938-127.050782c1.546875-17.074218 6.367188-33.691406 13.972657-49.042968l3.527343-7.117188c.164063-.324218.339844-.617187.542969-.882812-1.1875 5.796875-2.058594 11.675781-2.601562 17.589844-8.351563 92.316406 47.351562 135.140624 65.292968 146.417968zm0 0" fill="#af663e"/><path d="m122.140625 186.546875s-36.128906-41.605469-113.695313-25.347656c-5.488281 1.152343-8.996093 6.570312-7.660156 12.019531 5.691406 23.21875 27.542969 80.277344 105.667969 87.59375zm0 0" fill="#ffc1b8"/><path d="m110.726562 240.566406-4.277343 20.253906c-78.121094-7.320312-99.976563-64.386718-105.667969-87.597656-1.324219-5.453125 2.175781-10.871094 7.664062-12.023437 1.429688-.300781 2.835938-.574219 4.230469-.828125 7.8125 25.273437 31.117188 71.550781 98.050781 80.195312zm0 0" fill="#ffb3a8"/><path d="m357.328125 186.40625s68.527344-33.789062 60.082031-127.058594c-1.546875-17.066406-6.367187-33.683594-13.96875-49.039062l-3.519531-7.113282c-2.394531-4.835937-9.519531-3.996093-10.730469 1.261719-7.175781 31.210938-29.734375 95.660157-94.453125 102.945313l-16.238281 2.308594zm0 0" fill="#bc7d53"/><path d="m336.683594 166.316406 20.644531 20.085938s68.527344-33.792969 60.085937-127.050782c-1.542968-17.074218-6.367187-33.691406-13.96875-49.042968l-3.53125-7.117188c-.160156-.324218-.335937-.617187-.542968-.882812 1.191406 5.796875 2.058594 11.675781 2.601562 17.589844 8.355469 92.316406-47.347656 135.140624-65.289062 146.417968zm0 0" fill="#af663e"/><path d="m384.324219 186.546875s36.128906-41.605469 113.699219-25.347656c5.488281 1.152343 8.992187 6.570312 7.660156 12.019531-5.691406 23.21875-27.546875 80.277344-105.671875 87.59375zm0 0" fill="#ffc1b8"/><path d="m395.742188 240.566406 4.273437 20.253906c78.125-7.320312 99.976563-64.386718 105.671875-87.597656 1.324219-5.453125-2.179688-10.871094-7.667969-12.023437-1.425781-.300781-2.832031-.574219-4.226562-.828125-7.816407 25.273437-31.121094 71.550781-98.050781 80.195312zm0 0" fill="#ffb3a8"/><path d="m258.089844 84.3125c-43.753906-1.058594-87.914063 14.144531-117.925782 44.785156-44.339843 45.273438-45.003906 110.382813-33.671874 166.914063.890624 4.433593 2.027343 8.8125 3.339843 13.140625 5.070313 16.75 19.152344 65.449218 19.152344 89.871094 0 32.363281 4.804687 65.894531 33.597656 88.753906 11.15625 8.855468 24.773438 14.714844 39.160157 17.945312 9.199218 2.066406 18.667968 3.0625 28.132812 3.34375 36.980469 1.105469 79.371094 3.546875 110.589844-18.464844 19.894531-14.023437 30.886718-35.3125 35.328125-57.273437 2.339843-11.550781 2.050781-22.691406 2.050781-34.304687 0-24.410157 14.0625-73.070313 19.144531-89.84375 1.480469-4.898438 2.703125-9.871094 3.675781-14.894532 12.925782-66.96875 6.789063-144.503906-60.609374-186.359375-24.34375-15.121093-53.066407-22.914062-81.964844-23.613281zm0 0" fill="#e7e7e7"/><path d="m400.65625 294.289062c-.964844 5.019532-2.191406 9.996094-3.667969 14.890626-5.082031 16.773437-19.144531 65.4375-19.144531 89.847656 0 11.613281.285156 22.753906-2.050781 34.304687-4.445313 21.957031-15.433594 43.25-35.332031 57.269531-26.074219 18.378907-59.929688 19.710938-91.925782 19.015626 25.160156-.734376 50.140625-4.714844 70.417969-19.015626 19.898437-14.019531 30.882813-35.3125 35.332031-57.269531 2.335938-11.550781 2.046875-22.691406 2.046875-34.304687 0-24.40625 14.066407-73.074219 19.140625-89.847656 1.484375-4.894532 2.710938-9.871094 3.675782-14.890626 12.929687-66.96875 6.789062-144.507812-60.601563-186.363281-22.535156-13.992187-48.816406-21.714843-75.523437-23.332031 5.011718-.304688 10.039062-.402344 15.066406-.277344 28.902344.699219 57.621094 8.492188 81.96875 23.613282 67.390625 41.851562 73.527344 119.390624 60.597656 186.359374zm0 0" fill="#cecece"/><path d="m356.980469 367.5c-13.566407-11.023438-29.835938-17.578125-46-22.027344-38.578125-10.621094-76.976563-10.605468-115.492188 0-16.167969 4.449219-32.433593 11.003906-46.003906 22.027344-25.058594 20.359375-37.375 61.753906-24.984375 94.496094 14.496094 38.316406 48.417969 49.25 82.878906 49.703125 30.710938.398437 60.984375.402343 91.710938 0 34.460937-.449219 68.378906-11.386719 82.878906-49.703125 12.390625-32.742188.074219-74.136719-24.988281-94.496094zm0 0" fill="#ffc1b8"/><path d="m381.96875 462c-14.5 38.3125-48.417969 49.25-82.878906 49.699219-18.605469.238281-37.042969.335937-55.503906.277343 12.039062-.023437 24.078124-.121093 36.199218-.277343 34.460938-.449219 68.386719-11.386719 82.886719-49.699219 12.390625-32.742188.074219-74.132812-24.992187-94.503906-13.570313-11.023438-29.835938-17.578125-46.003907-22.023438-16.058593-4.417968-32.066406-7-48.089843-7.726562 22.445312-1.046875 44.890624 1.535156 67.398437 7.726562 16.167969 4.445313 32.429687 11 46.003906 22.023438 25.050781 20.371094 37.367188 61.761718 24.980469 94.503906zm0 0" fill="#ffb3a8"/><g fill="#484a4c"><path d="m249.199219 187.167969c-13.628907 11.242187-34.242188 6.085937-50.941407 11.824219-14.183593 4.875-24.414062 17.253906-32.417968 29.929687-8.015625 12.691406-14.753906 26.457031-25.464844 36.960937-9.453125 9.269532-22.902344 12.410157-36.859375 13.085938-7.789063-52.207031-3.296875-109.089844 36.644531-149.863281 29.664063-30.28125 73.132813-45.484375 116.371094-44.820313-.207031.761719-.398438 1.511719-.582031 2.246094-4.140625 16.882812-3.8125 30.5625 1.339843 51.328125 4.25 17.097656 5.496094 38.117187-8.089843 49.308594zm0 0"/><path d="m202.578125 288.453125c0 6.265625-5.078125 11.34375-11.347656 11.34375-6.265625 0-11.34375-5.078125-11.34375-11.34375 0-6.269531 5.078125-11.347656 11.34375-11.347656 6.269531 0 11.347656 5.078125 11.347656 11.347656zm0 0"/><path d="m326.582031 288.453125c0 6.265625-5.082031 11.34375-11.347656 11.34375s-11.347656-5.078125-11.347656-11.34375c0-6.269531 5.082031-11.347656 11.347656-11.347656s11.347656 5.078125 11.347656 11.347656zm0 0"/><path d="m231.246094 430.230469c0-8.8125-4.183594-15.957031-9.339844-15.957031-5.160156 0-9.34375 7.144531-9.34375 15.957031 0 8.816406 4.183594 15.960937 9.34375 15.960937 5.15625 0 9.339844-7.144531 9.339844-15.960937zm0 0"/><path d="m293.902344 430.230469c0-8.8125-4.179688-15.957031-9.339844-15.957031s-9.339844 7.144531-9.339844 15.957031c0 8.816406 4.179688 15.960937 9.339844 15.960937s9.339844-7.144531 9.339844-15.960937zm0 0"/></g></svg>